<svg width="8" height="8" viewBox="0 0 8 8" fill="none" xmlns="http://www.w3.org/2000/svg">
<path d="M0.0923077 4.30768C0.0307692 4.24614 0 4.15383 0 4.0923C0 4.03076 0.0307692 3.93845 0.0923077 3.87691L0.523077 3.44614C0.646154 3.32307 0.830769 3.32307 0.953846 3.44614L0.984615 3.47691L2.67692 5.2923C2.73846 5.35383 2.83077 5.35383 2.89231 5.2923L7.01538 1.01537H7.04615C7.16923 0.892296 7.35385 0.892296 7.47692 1.01537L7.90769 1.44614C8.03077 1.56922 8.03077 1.75383 7.90769 1.87691L2.98462 6.9846C2.92308 7.04614 2.86154 7.07691 2.76923 7.07691C2.67692 7.07691 2.61538 7.04614 2.55385 6.9846L0.153846 4.39999L0.0923077 4.30768Z" fill="white"/>
</svg>
