<svg width="42" height="42" viewBox="0 0 42 42" fill="none" xmlns="http://www.w3.org/2000/svg">
<g clip-path="url(#clip0)">
<path d="M41.4589 33.337L24.2312 4.76619C23.5524 3.64064 22.3143 2.94141 21 2.94141C19.6856 2.94141 18.4475 3.64064 17.7687 4.76627L0.541032 33.337C-0.160417 34.5004 -0.181171 35.9579 0.48681 37.1408C1.15495 38.3237 2.41381 39.0585 3.77224 39.0585H38.2277C39.5861 39.0585 40.845 38.3237 41.5132 37.1407C42.1812 35.9578 42.1604 34.5002 41.4589 33.337ZM39.1321 35.7962C38.9482 36.1217 38.6016 36.3241 38.2277 36.3241H3.77224C3.39826 36.3241 3.05168 36.1218 2.86785 35.7962C2.68393 35.4706 2.68968 35.0693 2.8827 34.7491L20.1105 6.17828C20.2974 5.86845 20.6382 5.67592 21 5.67592C21.3618 5.67592 21.7026 5.86845 21.8895 6.17828L39.1171 34.7491C39.3103 35.0694 39.3161 35.4706 39.1321 35.7962Z" fill="#FF4D4D"/>
<path d="M21.0131 14.1918C19.9729 14.1918 19.1611 14.75 19.1611 15.7394C19.1611 18.7583 19.5162 23.0965 19.5162 26.1155C19.5163 26.9019 20.2014 27.2317 21.0131 27.2317C21.622 27.2317 22.4845 26.9019 22.4845 26.1155C22.4845 23.0966 22.8397 18.7584 22.8397 15.7394C22.8397 14.7501 22.0025 14.1918 21.0131 14.1918Z" fill="#FF4D4D"/>
<path d="M21.0375 28.9821C19.9213 28.9821 19.084 29.87 19.084 30.9356C19.084 31.9758 19.9212 32.8891 21.0375 32.8891C22.0776 32.8891 22.9656 31.9758 22.9656 30.9356C22.9656 29.87 22.0776 28.9821 21.0375 28.9821Z" fill="#FF4D4D"/>
</g>
<defs>
<clipPath id="clip0">
<rect width="42" height="42" fill="white"/>
</clipPath>
</defs>
</svg>
