<svg width="20" height="16" viewBox="0 0 20 16" fill="none" xmlns="http://www.w3.org/2000/svg">
<path d="M20 1C20 0.447715 19.5523 0 19 0H10H1C0.447715 0 0 0.447715 0 1C0 1.55228 0.447715 2 1 2H10H19C19.5523 2 20 1.55228 20 1Z" fill="#141414"/>
<path d="M20 8C20 7.44772 19.5523 7 19 7H6C5.44772 7 5 7.44772 5 8C5 8.55228 5.44772 9 6 9H12.5H19C19.5523 9 20 8.55228 20 8Z" fill="#141414"/>
<path d="M20 15C20 14.4477 19.5523 14 19 14H5C4.44772 14 4 14.4477 4 15C4 15.5523 4.44772 16 5 16H12H19C19.5523 16 20 15.5523 20 15Z" fill="#141414"/>
</svg>
