<svg width="6" height="10" viewBox="0 0 6 10" fill="none" xmlns="http://www.w3.org/2000/svg">
<path d="M5.4998 0.00208067L4.20302 0C2.74613 0 1.80463 0.96595 1.80463 2.46101V3.59571H0.500781C0.388112 3.59571 0.296875 3.68705 0.296875 3.79971V5.44375C0.296875 5.55642 0.388216 5.64766 0.500781 5.64766H1.80463V9.79609C1.80463 9.90876 1.89587 10 2.00854 10H3.70969C3.82236 10 3.9136 9.90866 3.9136 9.79609V5.64766H5.4381C5.55077 5.64766 5.64201 5.55642 5.64201 5.44375L5.64263 3.79971C5.64263 3.74562 5.6211 3.69381 5.58292 3.65552C5.54474 3.61724 5.49272 3.59571 5.43862 3.59571H3.9136V2.63381C3.9136 2.17149 4.02377 1.93679 4.62602 1.93679L5.49959 1.93648C5.61215 1.93648 5.70339 1.84514 5.70339 1.73257V0.205986C5.70339 0.093526 5.61226 0.00228873 5.4998 0.00208067Z" fill="black"/>
</svg>
