<svg width="10" height="10" viewBox="0 0 10 10" fill="none" xmlns="http://www.w3.org/2000/svg">
<path d="M10 6.08063V9.77769H7.85668V6.32824C7.85668 5.4617 7.54667 4.87033 6.77086 4.87033C6.17862 4.87033 5.82618 5.26887 5.67113 5.6544C5.61459 5.79222 5.60003 5.98405 5.60003 6.17697V9.77769H3.45599C3.45599 9.77769 3.48487 3.93545 3.45599 3.33014H5.59983V4.24406C5.59548 4.25089 5.58983 4.25826 5.58574 4.26489H5.59983V4.24406C5.88465 3.80536 6.39333 3.17867 7.5319 3.17867C8.94252 3.17865 10 4.10019 10 6.08063ZM1.21323 0.222107C0.479753 0.222107 0 0.703209 0 1.33587C0 1.95475 0.465873 2.45045 1.18477 2.45045H1.19909C1.94677 2.45045 2.41176 1.95484 2.41176 1.33587C2.39767 0.703209 1.94677 0.222107 1.21323 0.222107ZM0.127337 9.77769H2.27057V3.33014H0.127337V9.77769Z" fill="white"/>
</svg>
