<svg width="10" height="10" viewBox="0 0 10 10" fill="none" xmlns="http://www.w3.org/2000/svg">
<path d="M10 6.08069V9.77775H7.85668V6.3283C7.85668 5.46176 7.54667 4.87039 6.77086 4.87039C6.17862 4.87039 5.82618 5.26893 5.67113 5.65446C5.61459 5.79228 5.60003 5.98411 5.60003 6.17704V9.77775H3.45599C3.45599 9.77775 3.48487 3.93551 3.45599 3.33021H5.59983V4.24412C5.59548 4.25096 5.58983 4.25833 5.58574 4.26495H5.59983V4.24412C5.88465 3.80543 6.39333 3.17874 7.5319 3.17874C8.94252 3.17871 10 4.10025 10 6.08069ZM1.21323 0.222168C0.479753 0.222168 0 0.70327 0 1.33593C0 1.95481 0.465873 2.45052 1.18477 2.45052H1.19909C1.94677 2.45052 2.41176 1.95491 2.41176 1.33593C2.39767 0.70327 1.94677 0.222168 1.21323 0.222168ZM0.127337 9.77775H2.27057V3.33021H0.127337V9.77775Z" fill="black"/>
</svg>
