<svg width="108" height="35" viewBox="0 0 108 35" fill="none" xmlns="http://www.w3.org/2000/svg">
<path d="M9.74028 22.0256C10.2544 24.4355 11.1399 26.7334 12.3967 28.807C13.8249 31.189 15.653 33.2906 17.8524 35C18.795 34.2714 19.6519 33.4588 20.4803 32.5901C21.2515 31.7774 21.937 30.8807 22.594 29.956C20.566 29.4796 18.6236 28.751 16.767 27.7702C14.8532 26.7334 13.0537 25.4444 11.4255 23.8471C10.9971 23.4267 10.5972 23.0064 10.1973 22.558C10.0259 22.3619 9.8831 22.1938 9.74028 22.0256ZM17.8239 0C16.8812 0.728583 16.0243 1.54123 15.196 2.40993C14.4248 3.22258 13.7392 4.1193 13.0823 5.04403C15.1103 5.52042 17.0526 6.249 18.9093 7.22978C20.8231 8.26661 22.6226 9.55564 24.2507 11.1529C24.6792 11.5733 25.0791 11.9936 25.479 12.442C25.6218 12.6101 25.7646 12.7782 25.9074 12.9464C25.3933 10.5364 24.5078 8.23859 23.251 6.16493C21.8514 3.81105 19.9947 1.70937 17.8239 0ZM15.3674 26.3131C17.4811 27.6861 19.7662 28.6669 22.1084 29.2554C24.822 29.956 27.6498 30.1521 30.4205 29.8439C30.5633 28.6669 30.5919 27.49 30.5348 26.3131C30.4776 25.1922 30.3348 24.0993 30.1063 22.9784C28.3354 24.0432 26.4216 24.8839 24.3935 25.4724C22.3084 26.0609 20.0804 26.3971 17.7953 26.3971C17.1954 26.3971 16.5956 26.3691 15.9958 26.3411C15.7958 26.3411 15.5959 26.3411 15.3674 26.3131ZM5.22719 5.1281C5.08437 6.30504 5.0558 7.48199 5.11293 8.65893C5.17006 9.77982 5.31288 10.8727 5.54139 11.9936C7.31235 10.9287 9.22613 10.0881 11.2542 9.4996C13.3393 8.91113 15.5673 8.57486 17.8524 8.57486C18.4523 8.57486 19.0521 8.60288 19.6519 8.63091C19.8805 8.65893 20.0804 8.65893 20.3089 8.68695C18.1952 7.31385 15.9101 6.33307 13.5678 5.7446C10.8257 5.01601 7.99788 4.81986 5.22719 5.1281ZM22.4512 25.4163C24.9077 24.9119 27.2499 24.0432 29.3637 22.8103C31.7916 21.4091 33.9339 19.6157 35.6763 17.486C34.9336 16.5613 34.1053 15.7206 33.2198 14.9079C32.3914 14.1513 31.4774 13.4788 30.5348 12.8343C30.0492 14.7958 29.3065 16.7294 28.3068 18.5508C27.2499 20.4283 25.936 22.1938 24.3078 23.791C23.8794 24.2114 23.4509 24.6037 22.9939 24.996C22.794 25.1641 22.6226 25.2762 22.4512 25.4163ZM0 17.486C0.74266 18.4107 1.57101 19.2514 2.45649 20.0641C3.28484 20.8207 4.19889 21.4932 5.1415 22.1377C5.62708 20.1761 6.36974 18.2426 7.36948 16.4211C8.42634 14.5436 9.74028 12.7782 11.3684 11.1809C11.7969 10.7606 12.2253 10.3683 12.6824 9.97598C12.8537 9.83587 13.0251 9.69576 13.1679 9.55564C10.7114 10.06 8.36921 10.9287 6.25549 12.1617C3.88469 13.5348 1.7424 15.3563 0 17.486ZM26.8215 19.8959C28.2211 17.8223 29.2208 15.5805 29.8207 13.2826C30.5348 10.6205 30.7347 7.84628 30.4205 5.1281C29.2208 4.98799 28.0212 4.95997 26.8215 5.01601C25.6789 5.07206 24.5649 5.21217 23.4224 5.43635C24.5078 7.17374 25.3647 9.05124 25.9646 11.0408C26.5644 13.0865 26.9072 15.2722 26.9072 17.514C26.9072 18.1025 26.8786 18.691 26.85 19.2794C26.85 19.4756 26.85 19.6717 26.8215 19.8959ZM5.22719 29.8719C6.42687 30.012 7.62655 30.04 8.82623 29.984C9.96879 29.9279 11.0828 29.7878 12.2253 29.5637C11.1399 27.8263 10.283 25.9488 9.68315 23.9592C9.08331 21.9135 8.74054 19.7278 8.74054 17.486C8.74054 16.8975 8.76911 16.309 8.79767 15.7206C8.82623 15.4964 8.82623 15.3002 8.8548 15.0761C7.45517 17.1497 6.45543 19.3915 5.85559 21.6894C5.11293 24.3795 4.91298 27.1257 5.22719 29.8719Z" fill="white"/>
<path d="M106.486 31.4412C106.429 31.3851 106.429 31.3011 106.429 31.217C106.429 31.1609 106.429 31.1049 106.458 31.0489C106.486 30.9928 106.515 30.9368 106.572 30.9087C106.629 30.8807 106.686 30.8247 106.743 30.8247C106.829 30.7966 106.915 30.7966 107 30.7966C107.114 30.7966 107.2 30.7966 107.286 30.8247C107.372 30.8527 107.457 30.8807 107.514 30.9087C107.572 30.9368 107.629 30.9648 107.657 30.9928C107.686 31.0208 107.714 31.0208 107.743 31.0208H107.771L107.8 30.9928C107.8 30.9648 107.829 30.9648 107.829 30.9368C107.829 30.9087 107.829 30.8807 107.829 30.8247C107.829 30.7966 107.829 30.7686 107.829 30.7406C107.829 30.7126 107.829 30.6846 107.829 30.6846C107.829 30.6565 107.829 30.6565 107.8 30.6285C107.8 30.6285 107.771 30.6005 107.743 30.5725C107.714 30.5444 107.686 30.5444 107.629 30.5164C107.572 30.4884 107.514 30.4604 107.457 30.4604C107.4 30.4324 107.314 30.4324 107.229 30.4043C107.143 30.4043 107.057 30.3763 106.972 30.3763C106.772 30.3763 106.6 30.4043 106.458 30.4604C106.315 30.5164 106.2 30.5725 106.086 30.6565C106 30.7406 105.915 30.8247 105.858 30.9368C105.801 31.0488 105.801 31.1609 105.801 31.273C105.801 31.4131 105.829 31.5252 105.858 31.6373C105.915 31.7494 105.972 31.8335 106.029 31.8895C106.115 31.9736 106.2 32.0296 106.286 32.0577C106.372 32.1137 106.486 32.1417 106.572 32.1978C106.686 32.2258 106.772 32.2818 106.857 32.3099C106.943 32.3379 107.029 32.3939 107.114 32.4219C107.2 32.478 107.257 32.534 107.286 32.5901C107.343 32.6461 107.343 32.7302 107.343 32.8143C107.343 32.8983 107.314 32.9824 107.286 33.0384C107.257 33.0945 107.2 33.1505 107.143 33.2066C107.086 33.2346 107.029 33.2906 106.943 33.2906C106.857 33.3187 106.772 33.3187 106.686 33.3187C106.543 33.3187 106.429 33.2906 106.343 33.2626C106.229 33.2346 106.143 33.2066 106.086 33.1505C106 33.1225 105.943 33.0665 105.886 33.0384C105.829 33.0104 105.801 32.9824 105.772 32.9824C105.743 32.9824 105.743 32.9824 105.715 32.9824L105.686 33.0104C105.686 33.0384 105.686 33.0665 105.658 33.0945C105.658 33.1225 105.658 33.1505 105.658 33.2066C105.658 33.2906 105.658 33.3467 105.686 33.3747C105.686 33.4027 105.715 33.4588 105.743 33.4588C105.772 33.4868 105.801 33.5148 105.858 33.5428C105.915 33.5709 105.972 33.5989 106.058 33.6269C106.143 33.6549 106.229 33.683 106.343 33.683C106.458 33.711 106.543 33.711 106.657 33.711C106.829 33.711 107 33.683 107.172 33.6549C107.314 33.5989 107.457 33.5428 107.572 33.4588C107.686 33.3747 107.771 33.2626 107.829 33.1505C107.886 33.0384 107.914 32.8703 107.914 32.7302C107.914 32.5901 107.886 32.478 107.857 32.3939C107.8 32.3099 107.743 32.2258 107.686 32.1417C107.6 32.0857 107.514 32.0016 107.429 31.9736C107.343 31.9175 107.229 31.8895 107.143 31.8335C107.057 31.8055 106.943 31.7494 106.857 31.7214C106.772 31.6934 106.686 31.6373 106.6 31.6093C106.572 31.5533 106.515 31.4972 106.486 31.4412ZM105.058 32.0857C105.115 32.0577 105.115 31.9736 105.115 31.8895V31.7774C105.115 31.5813 105.086 31.3851 105.029 31.217C104.972 31.0489 104.886 30.8807 104.772 30.7406C104.658 30.6005 104.515 30.4884 104.344 30.4324C104.172 30.3483 103.972 30.3203 103.715 30.3203C103.487 30.3203 103.287 30.3483 103.087 30.4324C102.887 30.5164 102.744 30.6285 102.601 30.7686C102.459 30.9087 102.373 31.1049 102.287 31.3011C102.23 31.5252 102.173 31.7494 102.173 32.0296C102.173 32.3099 102.202 32.5621 102.287 32.7582C102.344 32.9824 102.459 33.1505 102.601 33.2906C102.744 33.4308 102.887 33.5428 103.087 33.5989C103.287 33.683 103.515 33.711 103.773 33.711C103.915 33.711 104.058 33.711 104.201 33.683C104.344 33.6549 104.458 33.6269 104.544 33.5989C104.658 33.5709 104.715 33.5428 104.801 33.5148C104.858 33.4868 104.915 33.4588 104.915 33.4588L104.944 33.4308C104.944 33.4308 104.972 33.4027 104.972 33.3747C104.972 33.3467 104.972 33.3467 104.972 33.3187C104.972 33.2906 104.972 33.2626 104.972 33.2346C104.972 33.2066 104.972 33.1505 104.972 33.1225C104.972 33.0945 104.972 33.0665 104.944 33.0665C104.944 33.0384 104.915 33.0384 104.915 33.0384C104.915 33.0384 104.887 33.0384 104.858 33.0384C104.829 33.0384 104.801 33.0384 104.744 33.0665C104.687 33.0945 104.629 33.1225 104.544 33.1505C104.458 33.1786 104.344 33.2066 104.23 33.2346C104.115 33.2626 103.972 33.2626 103.83 33.2626C103.63 33.2626 103.487 33.2346 103.344 33.1786C103.201 33.1225 103.116 33.0384 103.03 32.9544C102.944 32.8423 102.887 32.7302 102.858 32.5901C102.83 32.45 102.801 32.3099 102.801 32.1137H104.887C104.972 32.1417 105.029 32.1417 105.058 32.0857ZM104.544 31.7214H102.83C102.83 31.5813 102.858 31.4692 102.887 31.3571C102.916 31.245 102.973 31.1329 103.058 31.0489C103.144 30.9648 103.23 30.8807 103.315 30.8247C103.43 30.7686 103.544 30.7406 103.687 30.7406C103.972 30.7406 104.172 30.8247 104.315 30.9928C104.487 31.189 104.572 31.4412 104.544 31.7214ZM101.345 29.7038C101.402 29.6477 101.43 29.5637 101.43 29.4236C101.43 29.2834 101.402 29.1994 101.345 29.1433C101.287 29.0873 101.202 29.0593 101.059 29.0593C100.916 29.0593 100.83 29.0873 100.773 29.1433C100.716 29.1994 100.688 29.2834 100.688 29.4236C100.688 29.5637 100.716 29.6477 100.773 29.7038C100.83 29.7598 100.916 29.7878 101.059 29.7878C101.202 29.7878 101.316 29.7598 101.345 29.7038ZM100.002 30.7966C100.031 30.7686 100.031 30.7126 100.031 30.6285C100.031 30.5444 100.031 30.4884 100.002 30.4604C99.9735 30.4324 99.945 30.4043 99.9164 30.4043H98.9452C98.8595 30.3763 98.8024 30.3763 98.7167 30.3483C98.631 30.3483 98.5453 30.3203 98.4596 30.3203C98.2882 30.3203 98.1169 30.3483 97.974 30.4043C97.8312 30.4604 97.6884 30.5164 97.5742 30.6285C97.4599 30.7126 97.3742 30.8527 97.3171 30.9928C97.26 31.1329 97.2314 31.3011 97.2314 31.4692C97.2314 31.6093 97.26 31.7494 97.2885 31.8615C97.3171 31.9736 97.3742 32.0577 97.4599 32.1417C97.3742 32.2258 97.3171 32.3379 97.2314 32.45C97.1743 32.5621 97.1457 32.6741 97.1457 32.8143C97.1457 32.9263 97.1743 33.0104 97.2314 33.0945C97.2885 33.1786 97.3742 33.2626 97.4885 33.3187C97.4028 33.3747 97.3456 33.4308 97.2885 33.4868C97.2314 33.5428 97.1743 33.5989 97.1457 33.683C97.1171 33.739 97.0886 33.8231 97.06 33.8791C97.0314 33.9632 97.0314 34.0192 97.0314 34.1033C97.0314 34.2154 97.06 34.3275 97.1171 34.4396C97.1743 34.5517 97.2599 34.6357 97.3742 34.6918C97.4885 34.7758 97.6313 34.8319 97.8027 34.8599C97.974 34.9159 98.2026 34.9159 98.4596 34.9159C98.7167 34.9159 98.9452 34.8879 99.1452 34.8319C99.3451 34.7758 99.4879 34.6918 99.6308 34.6077C99.745 34.5236 99.8593 34.3835 99.9164 34.2714C99.9735 34.1313 100.002 34.0192 100.002 33.8511C100.002 33.711 99.9735 33.5989 99.9164 33.4868C99.8593 33.3747 99.7736 33.2906 99.6879 33.2346C99.6022 33.1505 99.4879 33.1225 99.3451 33.0665C99.2023 33.0384 99.0595 33.0104 98.9166 33.0104L98.0883 32.9824C97.9741 32.9824 97.8598 32.9544 97.7741 32.8983C97.6884 32.8423 97.6599 32.7862 97.6599 32.7022C97.6599 32.6461 97.6598 32.5621 97.6884 32.506C97.717 32.45 97.7455 32.3939 97.7741 32.3659C97.8312 32.422 97.9169 32.45 98.0312 32.506C98.1454 32.534 98.2597 32.5621 98.4025 32.5621C98.5739 32.5621 98.7453 32.534 98.9166 32.478C99.0595 32.422 99.2023 32.3659 99.3166 32.2538C99.4308 32.1697 99.5165 32.0296 99.5736 31.9175C99.6308 31.7774 99.6593 31.6093 99.6593 31.4412C99.6593 31.3291 99.6307 31.217 99.6022 31.1329C99.5736 31.0208 99.5165 30.9368 99.4308 30.8527H99.8878C99.945 30.8527 99.9735 30.8527 100.002 30.7966ZM97.6313 33.9071C97.6313 33.8511 97.6598 33.8231 97.6884 33.767C97.717 33.711 97.7455 33.683 97.8027 33.6269C97.8598 33.5709 97.9169 33.5148 97.974 33.4588L98.8024 33.4868C99.0023 33.4868 99.1452 33.5428 99.2594 33.5989C99.3737 33.683 99.4308 33.767 99.4308 33.9071C99.4308 33.9912 99.4022 34.0473 99.3737 34.1313C99.3451 34.2154 99.288 34.2714 99.2023 34.3275C99.1166 34.3835 99.0309 34.4396 98.9166 34.4676C98.8024 34.4956 98.6596 34.5236 98.4882 34.5236C98.2026 34.5236 98.0026 34.4956 97.8312 34.4115C97.6884 34.3275 97.6027 34.2154 97.6027 34.0753C97.6027 33.9912 97.6027 33.9352 97.6313 33.9071ZM99.1452 31.4412C99.1452 31.5252 99.1452 31.6093 99.1166 31.6934C99.088 31.7774 99.0595 31.8615 99.0023 31.9175C98.9452 31.9736 98.8881 32.0296 98.8024 32.0577C98.7167 32.0857 98.631 32.1137 98.5168 32.1137C98.2883 32.1137 98.1454 32.0577 98.0312 31.9456C97.9169 31.8335 97.8598 31.6653 97.8598 31.4692C97.8598 31.3851 97.8598 31.3011 97.8884 31.217C97.9169 31.1329 97.9455 31.0488 98.0026 30.9928C98.0598 30.9368 98.1169 30.8807 98.2026 30.8527C98.2882 30.8247 98.3739 30.7966 98.4882 30.7966C98.7167 30.7966 98.8881 30.8527 99.0023 30.9648C99.0595 31.0769 99.1452 31.245 99.1452 31.4412ZM96.4316 32.7022C96.4887 32.478 96.5459 32.2538 96.5459 32.0016C96.5459 31.7494 96.5173 31.4972 96.4602 31.3011C96.403 31.1049 96.2888 30.9087 96.1745 30.7686C96.0603 30.6285 95.8889 30.5164 95.6889 30.4324C95.489 30.3483 95.2605 30.3203 95.0034 30.3203C94.7463 30.3203 94.4893 30.3763 94.2893 30.4604C94.0894 30.5444 93.918 30.6565 93.7752 30.8247C93.6323 30.9928 93.5467 31.1609 93.461 31.3851C93.4038 31.6093 93.3753 31.8335 93.3753 32.0857C93.3753 32.3379 93.4038 32.5901 93.461 32.7862C93.5181 32.9824 93.6323 33.1786 93.7466 33.3187C93.8609 33.4588 94.0322 33.5709 94.2322 33.6549C94.4321 33.739 94.6606 33.767 94.9177 33.767C95.1748 33.767 95.4319 33.711 95.6318 33.6269C95.8318 33.5428 96.0031 33.4308 96.146 33.2626C96.2602 33.0945 96.3745 32.9264 96.4316 32.7022ZM95.9174 32.0296C95.9174 32.1978 95.8889 32.3659 95.8603 32.534C95.8318 32.6742 95.7746 32.8143 95.6889 32.9263C95.6032 33.0384 95.5176 33.1225 95.3747 33.1786C95.2605 33.2346 95.1177 33.2626 94.9463 33.2626C94.7463 33.2626 94.6035 33.2346 94.4893 33.1505C94.375 33.0945 94.2607 32.9824 94.2036 32.8983C94.1179 32.7862 94.0894 32.6461 94.0322 32.506C94.0037 32.3659 93.9751 32.1978 93.9751 32.0296C93.9751 31.8615 94.0037 31.6934 94.0322 31.5252C94.0608 31.3851 94.1179 31.245 94.2036 31.1329C94.2893 31.0208 94.375 30.9368 94.5178 30.8807C94.6321 30.8247 94.7749 30.7966 94.9748 30.7966C95.1748 30.7966 95.3176 30.8247 95.4319 30.9087C95.5461 30.9648 95.6604 31.0769 95.7175 31.189C95.8032 31.3011 95.8318 31.4412 95.8889 31.5813C95.9175 31.7214 95.9174 31.8615 95.9174 32.0296ZM92.5183 33.6269C92.5183 33.6269 92.5469 33.5989 92.5469 33.5709V28.9472C92.5469 28.9191 92.5469 28.9191 92.5183 28.8911C92.5183 28.8631 92.4898 28.8631 92.4612 28.8631C92.4327 28.8631 92.4041 28.8351 92.3755 28.8351C92.347 28.8351 92.2898 28.8351 92.2327 28.8351C92.1756 28.8351 92.1185 28.8351 92.0899 28.8351C92.0613 28.8351 92.0328 28.8351 92.0042 28.8631C91.9756 28.8631 91.9756 28.8911 91.9471 28.8911C91.9471 28.8911 91.9471 28.9191 91.9471 28.9472V33.5709C91.9471 33.5989 91.9471 33.5989 91.9471 33.6269C91.9471 33.6269 91.9756 33.6549 92.0042 33.6549C92.0328 33.6549 92.0613 33.683 92.0899 33.683C92.1185 33.683 92.1756 33.683 92.2327 33.683C92.2898 33.683 92.347 33.683 92.3755 33.683C92.4041 33.683 92.4327 33.683 92.4612 33.6549C92.4898 33.6549 92.4898 33.6549 92.5183 33.6269ZM90.9759 32.7022C91.033 32.478 91.0901 32.2538 91.0901 32.0016C91.0901 31.7494 91.0616 31.4972 91.0045 31.3011C90.9473 31.1049 90.8331 30.9087 90.7188 30.7686C90.6046 30.6285 90.4332 30.5164 90.2332 30.4324C90.0333 30.3483 89.8048 30.3203 89.5477 30.3203C89.2906 30.3203 89.0336 30.3763 88.8336 30.4604C88.6337 30.5444 88.4623 30.6565 88.3195 30.8247C88.1767 30.9928 88.091 31.1609 88.0053 31.3851C87.9481 31.6093 87.9196 31.8335 87.9196 32.0857C87.9196 32.3379 87.9481 32.5901 88.0053 32.7862C88.0624 32.9824 88.1766 33.1786 88.2909 33.3187C88.4052 33.4588 88.5765 33.5709 88.7765 33.6549C88.9764 33.739 89.2049 33.767 89.462 33.767C89.7191 33.767 89.9762 33.711 90.1761 33.6269C90.3761 33.5428 90.5474 33.4308 90.6903 33.2626C90.8045 33.0945 90.9188 32.9264 90.9759 32.7022ZM90.4903 32.0296C90.4903 32.1978 90.4618 32.3659 90.4332 32.534C90.4046 32.6742 90.3475 32.8143 90.2618 32.9263C90.1761 33.0384 90.0904 33.1225 89.9476 33.1786C89.8333 33.2346 89.6905 33.2626 89.5191 33.2626C89.3192 33.2626 89.1764 33.2346 89.0621 33.1505C88.9479 33.0945 88.8336 32.9824 88.7765 32.8983C88.6908 32.7862 88.6622 32.6461 88.6051 32.506C88.5765 32.3659 88.548 32.1978 88.548 32.0296C88.548 31.8615 88.5765 31.6934 88.6051 31.5252C88.6337 31.3851 88.6908 31.245 88.7765 31.1329C88.8622 31.0208 88.9479 30.9368 89.0907 30.8807C89.2049 30.8247 89.3763 30.7966 89.5477 30.7966C89.7477 30.7966 89.8905 30.8247 90.0047 30.9087C90.119 30.9648 90.2332 31.0769 90.2904 31.189C90.3761 31.3011 90.4046 31.4412 90.4618 31.5813C90.4618 31.7214 90.4903 31.8615 90.4903 32.0296ZM87.0626 33.6269C87.0626 33.6269 87.0912 33.5989 87.0912 33.5709V31.6653C87.0912 31.4412 87.0627 31.245 87.0341 31.1049C87.0055 30.9368 86.9198 30.7967 86.8341 30.6846C86.7484 30.5725 86.6342 30.4604 86.4914 30.4043C86.3485 30.3483 86.1772 30.2922 85.9487 30.2922C85.7773 30.2922 85.6059 30.3483 85.406 30.4324C85.2346 30.5164 85.0632 30.6565 84.8632 30.8527V30.4324C84.8632 30.4043 84.8632 30.4043 84.8632 30.3763L84.8347 30.3483C84.8061 30.3483 84.7775 30.3203 84.749 30.3203C84.7204 30.3203 84.6633 30.3203 84.6062 30.3203C84.549 30.3203 84.5205 30.3203 84.4633 30.3203C84.4348 30.3203 84.4062 30.3203 84.3777 30.3483C84.3491 30.3483 84.3491 30.3763 84.3491 30.3763C84.3491 30.3763 84.3491 30.4043 84.3491 30.4324V33.5428C84.3491 33.5709 84.3491 33.5709 84.3491 33.5989C84.3491 33.5989 84.3776 33.6269 84.4062 33.6269C84.4348 33.6269 84.4633 33.6549 84.4919 33.6549C84.5205 33.6549 84.5776 33.6549 84.6347 33.6549C84.6918 33.6549 84.749 33.6549 84.7775 33.6549C84.8061 33.6549 84.8347 33.6549 84.8632 33.6269C84.8918 33.6269 84.8918 33.5989 84.9204 33.5989C84.9204 33.5989 84.9489 33.5709 84.9489 33.5428V31.3571C85.1203 31.1609 85.2631 31.0208 85.406 30.9087C85.5488 30.7966 85.6916 30.7686 85.8344 30.7686C85.9487 30.7686 86.0343 30.7966 86.12 30.8247C86.2057 30.8527 86.2629 30.9368 86.32 30.9928C86.3771 31.0769 86.4057 31.1609 86.4342 31.273C86.4628 31.3851 86.4628 31.5252 86.4628 31.6934V33.5148C86.4628 33.5428 86.4628 33.5428 86.4914 33.5709C86.4914 33.5709 86.5199 33.5989 86.5485 33.5989C86.5771 33.5989 86.6056 33.6269 86.6342 33.6269C86.6628 33.6269 86.7199 33.6269 86.777 33.6269C86.8341 33.6269 86.8913 33.6269 86.9198 33.6269C86.9484 33.6269 86.977 33.6269 87.0055 33.5989C87.0341 33.6549 87.0626 33.6549 87.0626 33.6269ZM83.2922 33.6269C83.2922 33.6269 83.3208 33.5989 83.3208 33.5709V31.6653C83.3208 31.4412 83.2922 31.245 83.2637 31.1049C83.2351 30.9368 83.1494 30.7967 83.0637 30.6846C82.978 30.5725 82.8638 30.4604 82.7209 30.4043C82.5781 30.3483 82.4067 30.2922 82.1782 30.2922C82.0069 30.2922 81.8355 30.3483 81.6641 30.4043C81.4927 30.4884 81.3213 30.6285 81.1499 30.7966V28.9472C81.1499 28.9191 81.1499 28.9191 81.1214 28.8911C81.1214 28.8631 81.0928 28.8631 81.0642 28.8631C81.0357 28.8631 81.0071 28.8351 80.9785 28.8351C80.95 28.8351 80.8929 28.8351 80.8357 28.8351C80.7786 28.8351 80.7215 28.8351 80.6929 28.8351C80.6643 28.8351 80.6358 28.8351 80.6072 28.8631C80.5787 28.8631 80.5786 28.8911 80.5501 28.8911C80.5501 28.8911 80.5501 28.9191 80.5501 28.9472V33.5709C80.5501 33.5989 80.5501 33.5989 80.5501 33.6269C80.5501 33.6269 80.5787 33.6549 80.6072 33.6549C80.6358 33.6549 80.6643 33.683 80.6929 33.683C80.7215 33.683 80.7786 33.683 80.8357 33.683C80.8929 33.683 80.95 33.683 80.9785 33.683C81.0071 33.683 81.0357 33.683 81.0642 33.6549C81.0928 33.6549 81.0928 33.6269 81.1214 33.6269C81.1214 33.6269 81.1499 33.5989 81.1499 33.5709V31.3851C81.3213 31.189 81.4641 31.0488 81.6069 30.9368C81.7498 30.8247 81.8926 30.7966 82.0354 30.7966C82.1497 30.7966 82.2354 30.8247 82.3211 30.8527C82.4067 30.8807 82.4639 30.9648 82.521 31.0208C82.5781 31.1049 82.6067 31.189 82.6352 31.3011C82.6638 31.4131 82.6638 31.5533 82.6638 31.7214V33.5428C82.6638 33.5709 82.6638 33.5709 82.6924 33.5989C82.6924 33.5989 82.7209 33.6269 82.7495 33.6269C82.7781 33.6269 82.8066 33.6549 82.8352 33.6549C82.8638 33.6549 82.9209 33.6549 82.978 33.6549C83.0351 33.6549 83.0923 33.6549 83.1208 33.6549C83.1494 33.6549 83.178 33.6549 83.2065 33.6269C83.2636 33.6549 83.2637 33.6549 83.2922 33.6269ZM79.8074 33.2066C79.8074 33.1786 79.8074 33.1505 79.8074 33.0945C79.8074 33.0384 79.8074 33.0104 79.8074 32.9824C79.8074 32.9544 79.8074 32.9264 79.7789 32.8983C79.7789 32.8703 79.7503 32.8703 79.7503 32.8423L79.7217 32.8143C79.6932 32.8143 79.6646 32.8423 79.6075 32.8703C79.5504 32.8983 79.4932 32.9544 79.4075 33.0104C79.3218 33.0665 79.2362 33.0945 79.1505 33.1505C79.0648 33.1786 78.922 33.2066 78.8077 33.2066C78.6649 33.2066 78.5506 33.1786 78.4364 33.1225C78.3221 33.0665 78.2364 33.0104 78.1507 32.8983C78.065 32.7862 78.0079 32.6742 77.9793 32.534C77.9508 32.3939 77.9222 32.1978 77.9222 32.0016C77.9222 31.6093 78.0079 31.3011 78.1507 31.0769C78.2935 30.8527 78.5221 30.7686 78.8077 30.7686C78.9505 30.7686 79.0648 30.7966 79.1505 30.8247C79.2362 30.8527 79.3218 30.9087 79.4075 30.9368C79.4647 30.9928 79.5504 31.0208 79.5789 31.0769C79.636 31.1049 79.6646 31.1329 79.6932 31.1329C79.7217 31.1329 79.7503 31.1049 79.7789 31.0769C79.8074 31.0488 79.8074 30.9648 79.8074 30.8807C79.8074 30.8527 79.8074 30.7966 79.8074 30.7686C79.8074 30.7406 79.8074 30.7126 79.8074 30.6846C79.8074 30.6565 79.7789 30.6565 79.7789 30.6285C79.7789 30.6005 79.7503 30.6005 79.7217 30.5725C79.6932 30.5444 79.636 30.5164 79.5789 30.4604C79.5218 30.4324 79.4361 30.3763 79.379 30.3483C79.2933 30.3203 79.2076 30.2922 79.1219 30.2642C79.0362 30.2362 78.9219 30.2362 78.8363 30.2362C78.6363 30.2362 78.4364 30.2642 78.265 30.3483C78.0936 30.4043 77.9222 30.5164 77.808 30.6565C77.6651 30.7966 77.5794 30.9648 77.4938 31.189C77.4081 31.4131 77.3795 31.6653 77.3795 31.9736C77.3795 32.2538 77.4081 32.478 77.4652 32.6742C77.5223 32.8703 77.608 33.0665 77.7223 33.2066C77.8365 33.3467 77.9793 33.4588 78.1507 33.5148C78.3221 33.5989 78.5221 33.6269 78.7506 33.6269C78.8648 33.6269 78.9791 33.6269 79.0648 33.5989C79.179 33.5709 79.2647 33.5428 79.3504 33.5148C79.4361 33.4868 79.5218 33.4308 79.5789 33.4027C79.636 33.3467 79.6932 33.3187 79.7217 33.2906C79.7503 33.2626 79.7789 33.2346 79.7789 33.2346C79.7789 33.2066 79.8074 33.2066 79.8074 33.1786C79.7789 33.2626 79.8074 33.2346 79.8074 33.2066ZM76.5797 32.0857C76.6368 32.0577 76.6368 31.9736 76.6368 31.8895V31.7774C76.6368 31.5813 76.6083 31.3851 76.5512 31.217C76.494 31.0489 76.4083 30.8807 76.2941 30.7406C76.1798 30.6005 76.037 30.4884 75.8656 30.4324C75.6942 30.3483 75.4943 30.3203 75.2372 30.3203C75.0087 30.3203 74.8088 30.3483 74.6088 30.4324C74.4089 30.5164 74.266 30.6285 74.1232 30.7686C73.9804 30.9087 73.8947 31.1049 73.809 31.3011C73.7519 31.5252 73.6948 31.7494 73.6948 32.0296C73.6948 32.3099 73.7233 32.5621 73.809 32.7582C73.8661 32.9824 73.9804 33.1505 74.1232 33.2906C74.266 33.4308 74.4089 33.5428 74.6088 33.5989C74.8088 33.683 75.0373 33.711 75.2943 33.711C75.4372 33.711 75.58 33.711 75.7228 33.683C75.8656 33.6549 75.9799 33.6269 76.0656 33.5989C76.1798 33.5709 76.2369 33.5428 76.3226 33.5148C76.3798 33.4868 76.4369 33.4588 76.4369 33.4588L76.4655 33.4308C76.4655 33.4308 76.4655 33.4027 76.494 33.3747C76.494 33.3467 76.494 33.3467 76.494 33.3187C76.494 33.2906 76.494 33.2626 76.494 33.2346C76.494 33.2066 76.494 33.1505 76.494 33.1225C76.494 33.0945 76.494 33.0665 76.4655 33.0665C76.4655 33.0384 76.4369 33.0384 76.4369 33.0384C76.4369 33.0384 76.4083 33.0384 76.3798 33.0384C76.3512 33.0384 76.3226 33.0384 76.2655 33.0665C76.2084 33.0945 76.1513 33.1225 76.0656 33.1505C75.9799 33.1786 75.8656 33.2066 75.7514 33.2346C75.6371 33.2626 75.4943 33.2626 75.3515 33.2626C75.1515 33.2626 75.0087 33.2346 74.8659 33.1786C74.7231 33.1225 74.6374 33.0384 74.5517 32.9544C74.466 32.8423 74.4089 32.7302 74.3803 32.5901C74.3517 32.45 74.3232 32.3099 74.3232 32.1137H76.4083C76.4655 32.1417 76.5226 32.1417 76.5797 32.0857ZM76.0656 31.7214H74.3517C74.3517 31.5813 74.3803 31.4692 74.4089 31.3571C74.4374 31.245 74.4946 31.1329 74.5802 31.0489C74.6659 30.9648 74.7516 30.8807 74.8373 30.8247C74.9516 30.7686 75.0658 30.7406 75.2086 30.7406C75.4943 30.7406 75.6942 30.8247 75.8371 30.9928C75.9799 31.189 76.0656 31.4412 76.0656 31.7214ZM72.3237 32.5901V30.8527H73.1235C73.152 30.8527 73.1806 30.8247 73.2092 30.7966C73.2377 30.7686 73.2377 30.7126 73.2377 30.6285C73.2377 30.5725 73.2377 30.5444 73.2377 30.5164C73.2377 30.4884 73.2377 30.4604 73.2092 30.4324C73.2092 30.4043 73.1806 30.4043 73.1806 30.4043C73.152 30.4043 73.152 30.4043 73.1235 30.4043H72.3237V29.6758C72.3237 29.6477 72.3237 29.6477 72.3237 29.6197C72.3237 29.6197 72.2951 29.5917 72.2666 29.5917C72.238 29.5917 72.2094 29.5637 72.1809 29.5637C72.1523 29.5637 72.0952 29.5637 72.0381 29.5637C71.9809 29.5637 71.9238 29.5637 71.8952 29.5637C71.8667 29.5637 71.8381 29.5637 71.8095 29.5917C71.781 29.5917 71.781 29.6197 71.7524 29.6197C71.7524 29.6197 71.7524 29.6477 71.7524 29.6758V30.4043H71.324C71.2954 30.4043 71.2954 30.4043 71.2668 30.4043C71.2383 30.4043 71.2383 30.4324 71.2383 30.4324C71.2383 30.4604 71.2097 30.4884 71.2097 30.5164C71.2097 30.5444 71.2097 30.5725 71.2097 30.6285C71.2097 30.7126 71.2097 30.7686 71.2383 30.7966C71.2668 30.8247 71.2954 30.8527 71.324 30.8527H71.781V32.6742C71.781 32.8423 71.8095 33.0104 71.8381 33.1505C71.8667 33.2906 71.9238 33.4027 72.0095 33.4868C72.0952 33.5709 72.1809 33.6269 72.2951 33.683C72.4094 33.739 72.5522 33.739 72.7236 33.739C72.7807 33.739 72.8378 33.739 72.895 33.739C72.9521 33.739 73.0092 33.711 73.0378 33.711C73.0949 33.711 73.1235 33.683 73.1806 33.683C73.2092 33.6549 73.2377 33.6549 73.2663 33.6269C73.2949 33.5989 73.2949 33.5709 73.2949 33.5428C73.2949 33.5148 73.3234 33.4588 73.3234 33.3747C73.3234 33.3467 73.3234 33.2906 73.3234 33.2626C73.3234 33.2346 73.3234 33.2066 73.2949 33.2066C73.2949 33.1786 73.2949 33.1786 73.2663 33.1786H73.2377C73.2092 33.1786 73.2092 33.1786 73.1806 33.2066C73.152 33.2066 73.1235 33.2346 73.0949 33.2346C73.0664 33.2346 73.0378 33.2626 72.9807 33.2626C72.9521 33.2626 72.895 33.2906 72.8378 33.2906C72.6665 33.2906 72.5522 33.2346 72.4951 33.1225C72.3523 32.9824 72.3237 32.8143 72.3237 32.5901ZM69.1245 33.5709C69.1245 33.5428 69.1245 33.4868 69.1245 33.4308C69.1245 33.3747 69.1245 33.3187 69.1245 33.2906C69.1245 33.2626 69.096 33.2346 69.096 33.2346C69.096 33.2346 69.0674 33.2346 69.0389 33.2346C69.0103 33.2346 68.9817 33.2346 68.9817 33.2346C68.9532 33.2346 68.9246 33.2346 68.896 33.2066C68.8675 33.1786 68.8103 33.1786 68.7532 33.1225C68.6961 33.0945 68.639 33.0384 68.5533 32.9824C68.4676 32.9264 68.3819 32.8703 68.2676 32.7862C68.3248 32.7022 68.4104 32.5901 68.4676 32.478C68.5247 32.3659 68.5818 32.2538 68.6104 32.1417C68.639 32.0296 68.6675 31.8895 68.6961 31.7774C68.7247 31.6653 68.7246 31.5252 68.7246 31.3851V31.3011C68.7246 31.273 68.7247 31.245 68.6961 31.217C68.6961 31.189 68.6675 31.189 68.639 31.189C68.6104 31.189 68.5818 31.189 68.5533 31.1609C68.5247 31.1609 68.4676 31.1609 68.4104 31.1609C68.3533 31.1609 68.2962 31.1609 68.2676 31.1609C68.2391 31.1609 68.2105 31.1609 68.1819 31.189C68.1534 31.189 68.1534 31.217 68.1534 31.217C68.1534 31.245 68.1534 31.245 68.1534 31.273V31.3851C68.1534 31.4692 68.1534 31.5813 68.1248 31.6653C68.0962 31.7494 68.0962 31.8615 68.0677 31.9456C68.0391 32.0296 68.0106 32.1137 67.982 32.1978C67.9534 32.2818 67.8963 32.3379 67.8677 32.4219C67.7535 32.3379 67.6678 32.2258 67.5535 32.1417C67.4393 32.0296 67.3536 31.9456 67.2393 31.8335C67.1251 31.7214 67.0394 31.6373 66.9537 31.5252C66.868 31.4131 66.7823 31.3291 66.6966 31.245C66.9251 31.1329 67.0965 31.0208 67.2679 30.9087C67.4107 30.7966 67.5535 30.7126 67.6392 30.6005C67.7249 30.4884 67.8106 30.3763 67.8677 30.2642C67.9249 30.1521 67.9249 30.04 67.9249 29.8999C67.9249 29.7598 67.8963 29.6197 67.8392 29.5076C67.782 29.3955 67.7249 29.2834 67.6106 29.2274C67.525 29.1433 67.3821 29.0873 67.2393 29.0312C67.0965 28.9752 66.8966 28.9752 66.6966 28.9752C66.4395 28.9752 66.2396 29.0032 66.0682 29.0593C65.8968 29.1153 65.754 29.1994 65.6398 29.2834C65.5255 29.3955 65.4398 29.5076 65.4112 29.6197C65.3541 29.7598 65.3255 29.8999 65.3255 30.04C65.3255 30.1241 65.3255 30.2082 65.3541 30.2922C65.3827 30.3763 65.4112 30.4604 65.4398 30.5444C65.4969 30.6285 65.5255 30.7126 65.6112 30.8247C65.6683 30.9368 65.754 31.0489 65.8397 31.1609C65.6683 31.273 65.5255 31.3571 65.4112 31.4692C65.297 31.5813 65.1827 31.6653 65.1256 31.7774C65.0399 31.8895 64.9828 32.0016 64.9542 32.1137C64.9257 32.2258 64.8971 32.3379 64.8971 32.478C64.8971 32.6181 64.9257 32.7302 64.9542 32.8423C64.9828 32.9544 65.0399 33.0665 65.097 33.1505C65.1542 33.2346 65.2399 33.3187 65.3255 33.4027C65.4112 33.4868 65.5255 33.5428 65.6398 33.5709C65.754 33.6269 65.8683 33.6549 66.0111 33.683C66.1539 33.711 66.2967 33.711 66.4395 33.711C66.6109 33.711 66.7537 33.711 66.868 33.683C67.0108 33.6549 67.1251 33.6269 67.2679 33.5709C67.3821 33.5148 67.4964 33.4588 67.6106 33.4027C67.7249 33.3467 67.8106 33.2626 67.9249 33.1786C68.0677 33.2906 68.1819 33.3747 68.2676 33.4308C68.3533 33.4868 68.4676 33.5428 68.5247 33.5989C68.6104 33.6269 68.6675 33.6549 68.7246 33.683C68.7818 33.711 68.8389 33.711 68.8675 33.711C68.9246 33.711 68.9817 33.711 69.0103 33.683C69.0388 33.683 69.0674 33.6549 69.096 33.6549C69.096 33.6549 69.1245 33.6269 69.1245 33.5989C69.1245 33.6269 69.1245 33.5989 69.1245 33.5709ZM66.3539 30.9368C66.2682 30.8247 66.211 30.7406 66.1539 30.6565C66.0968 30.5725 66.0682 30.4884 66.0111 30.4324C65.9825 30.3483 65.954 30.2922 65.9254 30.2362C65.8968 30.1802 65.8968 30.0961 65.8968 30.04C65.8968 29.956 65.8968 29.8999 65.9254 29.8159C65.954 29.7598 65.9825 29.6758 66.0396 29.6477C66.0968 29.5917 66.1539 29.5637 66.2396 29.5356C66.3253 29.5076 66.4395 29.4796 66.5538 29.4796C66.668 29.4796 66.7537 29.4796 66.8394 29.5076C66.9251 29.5356 66.9822 29.5637 67.0394 29.6197C67.0965 29.6757 67.1251 29.7318 67.1536 29.7878C67.1822 29.8439 67.1822 29.8999 67.1822 29.984C67.1822 30.0681 67.1536 30.1521 67.1251 30.2082C67.0965 30.2922 67.0394 30.3483 66.9823 30.4324C66.9251 30.5164 66.8109 30.5725 66.6966 30.6565C66.668 30.7406 66.5252 30.8247 66.3539 30.9368ZM67.4678 32.8703C67.4107 32.9264 67.325 32.9824 67.2679 33.0104C67.1822 33.0665 67.1251 33.0945 67.0394 33.1225C66.9537 33.1505 66.868 33.1786 66.7823 33.2066C66.6966 33.2346 66.6109 33.2346 66.4967 33.2346C66.3253 33.2346 66.211 33.2066 66.0682 33.1786C65.9539 33.1505 65.8397 33.0945 65.7826 33.0104C65.6969 32.9264 65.6398 32.8423 65.6112 32.7582C65.5826 32.6461 65.5541 32.5621 65.5541 32.4219C65.5541 32.3379 65.5541 32.2538 65.5826 32.1978C65.6112 32.1137 65.6397 32.0577 65.6969 31.9736C65.754 31.8895 65.8111 31.8335 65.8968 31.7494C65.9825 31.6653 66.0682 31.6093 66.1825 31.5252C66.2682 31.6373 66.3538 31.7494 66.4681 31.8615C66.5824 31.9736 66.6681 32.0857 66.7823 32.1978C66.8966 32.3099 67.0108 32.422 67.1251 32.534C67.2393 32.6742 67.3536 32.7862 67.4678 32.8703ZM62.4692 32.0857C62.5263 32.0577 62.5263 31.9736 62.5263 31.8895V31.7774C62.5263 31.5813 62.4977 31.3851 62.4406 31.217C62.3835 31.0489 62.2978 30.8807 62.1835 30.7406C62.0693 30.6005 61.9265 30.4884 61.7551 30.4324C61.5837 30.3483 61.3837 30.3203 61.1267 30.3203C60.8982 30.3203 60.6982 30.3483 60.4983 30.4324C60.2983 30.5164 60.1555 30.6285 60.0127 30.7686C59.8699 30.9087 59.7842 31.1049 59.6985 31.3011C59.6413 31.5252 59.5842 31.7494 59.5842 32.0296C59.5842 32.3099 59.6128 32.5621 59.6985 32.7582C59.7556 32.9824 59.8699 33.1505 60.0127 33.2906C60.1555 33.4308 60.2983 33.5428 60.4983 33.5989C60.6982 33.683 60.9267 33.711 61.1838 33.711C61.3266 33.711 61.4694 33.711 61.6122 33.683C61.7551 33.6549 61.8693 33.6269 61.955 33.5989C62.0693 33.5709 62.1264 33.5428 62.2121 33.5148C62.2692 33.4868 62.3263 33.4588 62.3263 33.4588L62.3549 33.4308C62.3549 33.4308 62.3549 33.4027 62.3835 33.3747C62.3835 33.3467 62.3835 33.3467 62.3835 33.3187C62.3835 33.2906 62.3835 33.2626 62.3835 33.2346C62.3835 33.2066 62.3835 33.1505 62.3835 33.1225C62.3835 33.0945 62.3835 33.0665 62.3549 33.0665C62.3549 33.0384 62.3263 33.0384 62.3263 33.0384C62.3263 33.0384 62.2978 33.0384 62.2692 33.0384C62.2407 33.0384 62.2121 33.0384 62.155 33.0665C62.0978 33.0945 62.0407 33.1225 61.955 33.1505C61.8693 33.1786 61.7551 33.2066 61.6408 33.2346C61.5266 33.2626 61.3837 33.2626 61.2409 33.2626C61.041 33.2626 60.8981 33.2346 60.7553 33.1786C60.6125 33.1225 60.5268 33.0384 60.4411 32.9544C60.3554 32.8423 60.2983 32.7302 60.2697 32.5901C60.2412 32.45 60.2126 32.3099 60.2126 32.1137H62.2978C62.3835 32.1417 62.4406 32.1417 62.4692 32.0857ZM61.955 31.7214H60.2412C60.2412 31.5813 60.2697 31.4692 60.2983 31.3571C60.3269 31.245 60.384 31.1329 60.4697 31.0489C60.5554 30.9648 60.6411 30.8807 60.7268 30.8247C60.841 30.7686 60.9553 30.7406 61.0981 30.7406C61.3837 30.7406 61.5837 30.8247 61.7265 30.9928C61.8979 31.189 61.955 31.4412 61.955 31.7214ZM58.7559 33.6269C58.7559 33.6269 58.7559 33.5989 58.7559 33.5709V28.9472C58.7559 28.9191 58.7559 28.9191 58.7559 28.8911C58.7559 28.8631 58.7273 28.8631 58.6987 28.8631C58.6702 28.8631 58.6416 28.8351 58.613 28.8351C58.5845 28.8351 58.5273 28.8351 58.4702 28.8351C58.4131 28.8351 58.356 28.8351 58.3274 28.8351C58.2988 28.8351 58.2703 28.8351 58.2417 28.8631C58.2131 28.8631 58.2131 28.8911 58.1846 28.8911C58.1846 28.8911 58.1846 28.9191 58.1846 28.9472V33.5709C58.1846 33.5989 58.1846 33.5989 58.1846 33.6269C58.1846 33.6269 58.2131 33.6549 58.2417 33.6549C58.2703 33.6549 58.2988 33.683 58.3274 33.683C58.356 33.683 58.4131 33.683 58.4702 33.683C58.5273 33.683 58.5845 33.683 58.613 33.683C58.6416 33.683 58.6702 33.683 58.6987 33.6549C58.7273 33.6549 58.7559 33.6549 58.7559 33.6269ZM57.242 32.7302C57.2991 32.506 57.3277 32.2818 57.3277 32.0016C57.3277 31.7774 57.2991 31.5533 57.2705 31.3571C57.2134 31.1609 57.1563 30.9928 57.042 30.8247C56.9278 30.6846 56.8135 30.5444 56.6421 30.4604C56.4708 30.3763 56.2994 30.3203 56.0423 30.3203C55.928 30.3203 55.8423 30.3203 55.7566 30.3483C55.671 30.3763 55.5567 30.4043 55.471 30.4604C55.3853 30.5164 55.2996 30.5725 55.2139 30.6285C55.1282 30.7126 55.0426 30.7966 54.9283 30.8807V30.4604C54.9283 30.4324 54.9283 30.4324 54.9283 30.4043C54.9283 30.4043 54.8997 30.3763 54.8712 30.3763C54.8426 30.3763 54.814 30.3483 54.7855 30.3483C54.7569 30.3483 54.6998 30.3483 54.6712 30.3483C54.6141 30.3483 54.5855 30.3483 54.557 30.3483C54.5284 30.3483 54.4998 30.3483 54.4713 30.3763C54.4427 30.3763 54.4427 30.4043 54.4427 30.4043C54.4427 30.4043 54.4427 30.4324 54.4427 30.4604V34.8039C54.4427 34.8319 54.4427 34.8319 54.4427 34.8599C54.4427 34.8879 54.4713 34.8879 54.4998 34.8879C54.5284 34.8879 54.557 34.9159 54.5855 34.9159C54.6141 34.9159 54.6712 34.9159 54.7284 34.9159C54.7855 34.9159 54.8426 34.9159 54.8712 34.9159C54.8997 34.9159 54.9283 34.9159 54.9569 34.8879C54.9854 34.8879 54.9854 34.8599 55.014 34.8599C55.014 34.8319 55.014 34.8319 55.014 34.8039V33.2346C55.0997 33.3187 55.1854 33.3747 55.2425 33.4308C55.3282 33.4868 55.3853 33.5428 55.471 33.5709C55.5567 33.5989 55.6138 33.6269 55.6995 33.6549C55.7852 33.683 55.8709 33.683 55.9566 33.683C56.1851 33.683 56.3851 33.6549 56.5564 33.5709C56.7278 33.4868 56.8706 33.3747 56.9849 33.2346C57.0706 33.1225 57.1563 32.9264 57.242 32.7302ZM56.7278 32.0577C56.7278 32.1978 56.6993 32.3379 56.6707 32.478C56.6421 32.6181 56.585 32.7582 56.5279 32.8703C56.4707 32.9824 56.3851 33.0665 56.2708 33.1505C56.1565 33.2066 56.0423 33.2626 55.8995 33.2626C55.7566 33.2626 55.5853 33.2066 55.4425 33.1225C55.2996 33.0104 55.1568 32.8703 54.9854 32.6742V31.4412C55.0711 31.3291 55.1568 31.245 55.2425 31.1609C55.3282 31.0769 55.4139 31.0208 55.471 30.9648C55.5567 30.9087 55.6138 30.8807 55.6995 30.8527C55.7852 30.8247 55.8423 30.8247 55.928 30.8247C56.0709 30.8247 56.2137 30.8527 56.2994 30.9368C56.4136 30.9928 56.4707 31.1049 56.5279 31.217C56.585 31.3291 56.6421 31.4692 56.6421 31.6093C56.6993 31.7494 56.7278 31.8895 56.7278 32.0577ZM53.443 32.7022C53.5001 32.478 53.5572 32.2538 53.5572 32.0016C53.5572 31.7494 53.5287 31.4972 53.4715 31.3011C53.4144 31.1049 53.3002 30.9087 53.1859 30.7686C53.0431 30.6285 52.9003 30.5164 52.7003 30.4324C52.5004 30.3483 52.2719 30.3203 52.0148 30.3203C51.7577 30.3203 51.5006 30.3763 51.3007 30.4604C51.1007 30.5444 50.9294 30.6565 50.7865 30.8247C50.6437 30.9928 50.558 31.1609 50.4723 31.3851C50.4152 31.6093 50.3866 31.8335 50.3866 32.0857C50.3866 32.3379 50.4152 32.5901 50.4723 32.7862C50.5295 32.9824 50.6437 33.1786 50.758 33.3187C50.8722 33.4588 51.0436 33.5709 51.2436 33.6549C51.4435 33.739 51.672 33.767 51.9291 33.767C52.1862 33.767 52.4432 33.711 52.6432 33.6269C52.8431 33.5428 53.0145 33.4308 53.1573 33.2626C53.2716 33.0945 53.3859 32.9264 53.443 32.7022ZM52.9574 32.0296C52.9574 32.1978 52.9288 32.3659 52.9003 32.534C52.8717 32.6742 52.8146 32.8143 52.7289 32.9263C52.6432 33.0384 52.5575 33.1225 52.4147 33.1786C52.3004 33.2346 52.129 33.2626 51.9862 33.2626C51.7863 33.2626 51.6435 33.2346 51.5292 33.1505C51.4149 33.0945 51.3007 32.9824 51.2436 32.8983C51.1579 32.7862 51.1293 32.6461 51.0722 32.506C51.0436 32.3659 51.0151 32.1978 51.0151 32.0296C51.0151 31.8615 51.0436 31.6934 51.0722 31.5252C51.1007 31.3851 51.1579 31.245 51.2436 31.1329C51.3293 31.0208 51.4149 30.9368 51.5578 30.8807C51.672 30.8247 51.8434 30.7966 52.0148 30.7966C52.2147 30.7966 52.3575 30.8247 52.4718 30.9087C52.5861 30.9648 52.7003 31.0769 52.7574 31.189C52.8431 31.3011 52.8717 31.4412 52.9288 31.5813C52.9288 31.7214 52.9574 31.8615 52.9574 32.0296ZM49.644 32.0857C49.7011 32.0577 49.7011 31.9736 49.7011 31.8895V31.7774C49.7011 31.5813 49.6726 31.3851 49.6154 31.217C49.5583 31.0489 49.4726 30.8807 49.3583 30.7406C49.2441 30.6005 49.1013 30.4884 48.9299 30.4324C48.7585 30.3483 48.53 30.3203 48.3015 30.3203C48.073 30.3203 47.873 30.3483 47.6731 30.4324C47.4731 30.5164 47.3303 30.6285 47.1875 30.7686C47.0447 30.9087 46.959 31.1049 46.8733 31.3011C46.8162 31.5252 46.759 31.7494 46.759 32.0296C46.759 32.3099 46.7876 32.5621 46.8733 32.7582C46.9304 32.9824 47.0447 33.1505 47.1875 33.2906C47.3303 33.4308 47.4731 33.5428 47.6731 33.5989C47.873 33.683 48.1015 33.711 48.3586 33.711C48.5014 33.711 48.6443 33.711 48.7871 33.683C48.9299 33.6549 49.0441 33.6269 49.1298 33.5989C49.2441 33.5709 49.3012 33.5428 49.3869 33.5148C49.444 33.4868 49.5012 33.4588 49.5012 33.4588L49.5297 33.4308C49.5297 33.4308 49.5583 33.4027 49.5583 33.3747C49.5583 33.3467 49.5583 33.3467 49.5583 33.3187C49.5583 33.2906 49.5583 33.2626 49.5583 33.2346C49.5583 33.2066 49.5583 33.1505 49.5583 33.1225C49.5583 33.0945 49.5583 33.0665 49.5297 33.0665C49.5297 33.0384 49.5012 33.0384 49.5012 33.0384C49.5012 33.0384 49.4726 33.0384 49.444 33.0384C49.4155 33.0384 49.3869 33.0384 49.3298 33.0665C49.2727 33.0945 49.2155 33.1225 49.1298 33.1505C49.0441 33.1786 48.9299 33.2066 48.8156 33.2346C48.7014 33.2626 48.5586 33.2626 48.4157 33.2626C48.2158 33.2626 48.073 33.2346 47.9302 33.1786C47.7873 33.1225 47.7016 33.0384 47.6159 32.9544C47.5303 32.8423 47.4731 32.7302 47.4446 32.5901C47.416 32.45 47.3874 32.3099 47.3874 32.1137H49.4726C49.5583 32.1417 49.6154 32.1417 49.644 32.0857ZM49.1298 31.7214H47.416C47.416 31.5813 47.4446 31.4692 47.4731 31.3571C47.5017 31.245 47.5588 31.1329 47.6445 31.0489C47.7302 30.9648 47.8159 30.8807 47.9016 30.8247C48.0158 30.7686 48.1301 30.7406 48.2729 30.7406C48.5586 30.7406 48.7585 30.8247 48.9013 30.9928C49.0727 31.189 49.1298 31.4412 49.1298 31.7214ZM46.0735 32.7302C46.1306 32.506 46.1592 32.2818 46.1592 32.0016C46.1592 31.7774 46.1306 31.5533 46.1021 31.3571C46.0449 31.1609 45.9878 30.9928 45.8736 30.8247C45.7593 30.6846 45.645 30.5444 45.4737 30.4604C45.3023 30.3763 45.1309 30.3203 44.8738 30.3203C44.7596 30.3203 44.6739 30.3203 44.5596 30.3483C44.4739 30.3763 44.3597 30.4043 44.274 30.4604C44.1883 30.5164 44.1026 30.5725 44.0169 30.6285C43.9312 30.7126 43.8455 30.7966 43.7313 30.8807V30.4604C43.7313 30.4324 43.7313 30.4324 43.7313 30.4043C43.7313 30.4043 43.7027 30.3763 43.6741 30.3763C43.6456 30.3763 43.617 30.3483 43.5884 30.3483C43.5599 30.3483 43.5028 30.3483 43.4742 30.3483C43.4171 30.3483 43.3885 30.3483 43.3599 30.3483C43.3314 30.3483 43.3028 30.3483 43.2742 30.3763C43.2457 30.3763 43.2457 30.4043 43.2457 30.4043C43.2457 30.4043 43.2457 30.4324 43.2457 30.4604V34.8039C43.2457 34.8319 43.2457 34.8319 43.2457 34.8599C43.2457 34.8879 43.2742 34.8879 43.3028 34.8879C43.3314 34.8879 43.3599 34.9159 43.3885 34.9159C43.4171 34.9159 43.4742 34.9159 43.5313 34.9159C43.5884 34.9159 43.6456 34.9159 43.6741 34.9159C43.7027 34.9159 43.7313 34.9159 43.7598 34.8879C43.7884 34.8879 43.7884 34.8599 43.817 34.8599C43.817 34.8319 43.8455 34.8319 43.8455 34.8039V33.2346C43.9312 33.3187 44.0169 33.3747 44.074 33.4308C44.1597 33.4868 44.2169 33.5428 44.3025 33.5709C44.3882 33.5989 44.4454 33.6269 44.5311 33.6549C44.6167 33.683 44.7024 33.683 44.7881 33.683C45.0166 33.683 45.2166 33.6549 45.388 33.5709C45.5593 33.4868 45.7022 33.3747 45.8164 33.2346C45.9021 33.1225 45.9878 32.9264 46.0735 32.7302ZM45.5308 32.0577C45.5308 32.1978 45.5022 32.3379 45.4737 32.478C45.4451 32.6181 45.388 32.7582 45.3308 32.8703C45.2737 32.9824 45.188 33.0665 45.0738 33.1505C44.9595 33.2066 44.8453 33.2626 44.7024 33.2626C44.5311 33.2626 44.3882 33.2066 44.2454 33.1225C44.1026 33.0104 43.9598 32.8703 43.7884 32.6742V31.4412C43.8741 31.3291 43.9598 31.245 44.0455 31.1609C44.1312 31.0769 44.2169 31.0208 44.274 30.9648C44.3597 30.9087 44.4168 30.8807 44.5025 30.8527C44.5882 30.8247 44.6453 30.8247 44.731 30.8247C44.8738 30.8247 45.0166 30.8527 45.1023 30.9368C45.2166 30.9928 45.2737 31.1049 45.3308 31.217C45.388 31.3291 45.4451 31.4692 45.4451 31.6093C45.5308 31.7494 45.5308 31.8895 45.5308 32.0577ZM100.802 30.4324C100.802 30.4324 100.802 30.4604 100.802 30.4884V33.5989C100.802 33.6269 100.802 33.6269 100.802 33.6549C100.802 33.6549 100.83 33.683 100.859 33.683C100.888 33.683 100.916 33.711 100.945 33.711C100.973 33.711 101.03 33.711 101.088 33.711C101.145 33.711 101.202 33.711 101.23 33.711C101.259 33.711 101.287 33.711 101.316 33.683C101.345 33.683 101.345 33.6549 101.373 33.6549C101.373 33.6549 101.402 33.6269 101.402 33.5989V30.4884C101.402 30.4604 101.402 30.4604 101.373 30.4324C101.373 30.4324 101.345 30.4043 101.316 30.4043C101.287 30.4043 101.259 30.3763 101.23 30.3763C101.202 30.3763 101.145 30.3763 101.088 30.3763C101.03 30.3763 100.973 30.3763 100.945 30.3763C100.916 30.3763 100.888 30.3763 100.859 30.4043C100.83 30.4043 100.802 30.4324 100.802 30.4324Z" fill="white"/>
<path d="M53.9286 11.3771C56.0994 9.35949 58.813 6.33307 60.384 4.03523C60.8125 3.39071 61.041 2.94235 61.041 2.35388C61.041 1.20496 59.5271 0 57.9847 0C57.1277 0 56.6707 0.392314 56.1851 1.1209C53.9572 4.42754 50.7866 7.95837 48.3015 10.3403V2.04564C48.3015 0.420336 47.5017 0.0280224 45.7593 0.0280224C44.1026 0.0280224 43.2171 0.392314 43.2171 2.04564V23.1745C43.2171 24.8279 44.1026 25.3042 45.6736 25.3042C47.4732 25.3042 48.2729 24.7158 48.2729 23.1745V15.8327C48.6728 15.4964 49.8154 14.5717 50.0439 14.4035C52.7289 17.2618 55.0711 20.8487 57.0992 24.0432C57.5276 24.7158 57.899 25.3323 58.8987 25.3323C60.1841 25.3323 62.0979 24.2954 62.0979 22.9223C62.0979 22.3899 61.8694 21.9976 61.4409 21.241C59.5271 17.9624 56.9278 14.5156 53.9286 11.3771ZM84.8633 2.69015C84.8633 1.09287 84.4919 0.420336 82.8352 0.420336H67.6107C65.9825 0.420336 65.4684 1.06485 65.4684 2.69015C65.4684 4.23139 65.9825 4.95997 67.6107 4.95997H72.6379V23.2026C72.6379 24.7998 73.4091 25.3042 75.0944 25.3042C76.7797 25.3042 77.6937 24.7998 77.6937 23.2026V4.95997H82.8352C84.4919 4.95997 84.8633 4.25941 84.8633 2.69015ZM108 23.4828C108 22.8943 107.886 22.5581 107.6 21.8575C105.429 16.3931 103.744 14.5436 101.687 13.759C105.144 13.1145 107.343 10.7606 107.343 7.28583C107.343 2.94235 104.515 0.448359 98.6882 0.448359H93.9466C91.2044 0.448359 90.0619 1.8775 90.0619 4.1193V23.2586C90.0619 24.8839 90.9188 25.3042 92.547 25.3042C94.3179 25.3042 95.1177 24.8839 95.1177 23.2586V15.1882H95.7747C98.831 15.1882 99.8593 16.6733 102.973 24.0152C103.316 24.7998 103.658 25.5004 104.858 25.5004C106.8 25.5004 108 24.4356 108 23.4828ZM102.287 7.81826C102.287 9.97598 100.83 10.8727 98.3168 10.8727H95.1177V5.32426C95.1177 4.93195 95.4033 4.65172 95.7461 4.65172H98.831C101.373 4.65172 102.287 5.85669 102.287 7.81826Z" fill="white"/>
</svg>
