<svg width="52" height="60" viewBox="0 0 52 60" fill="none" xmlns="http://www.w3.org/2000/svg">
<g filter="url(#filter0_d)">
<path d="M25.4295 0.0101807C17.4609 0.289027 10.8409 6.48925 10.0761 14.4036C9.9199 15.9864 10.0104 17.5201 10.29 18.9881C10.29 18.9881 10.3146 19.1604 10.3969 19.4884C10.6436 20.5874 11.0136 21.6536 11.4742 22.6541C13.0777 26.4432 16.7866 32.7828 25.1088 39.6801C25.6187 40.1066 26.367 40.1066 26.8851 39.6801C35.2073 32.791 38.9162 26.4514 40.528 22.6459C40.9967 21.6454 41.3586 20.5874 41.6053 19.4802C41.6793 19.1604 41.7122 18.9799 41.7122 18.9799C41.9013 17.9958 42 16.987 42 15.9536C42 6.94853 34.5248 -0.309672 25.4295 0.0101807Z" fill="#006FC0"/>
<path d="M20.5921 18.5943C20.9358 20.1981 21.5277 21.7272 22.3678 23.1072C23.3225 24.6923 24.5445 26.0909 26.0148 27.2285C26.6449 26.7436 27.2177 26.2028 27.7714 25.6247C28.2869 25.0839 28.7452 24.4872 29.1844 23.8718C27.8287 23.5548 26.5303 23.0699 25.2892 22.4172C24.0099 21.7272 22.807 20.8694 21.7186 19.8064C21.4322 19.5267 21.1649 19.247 20.8976 18.9486C20.783 18.8181 20.6876 18.7062 20.5921 18.5943ZM25.9957 3.93665C25.3656 4.4215 24.7927 4.96231 24.239 5.54041C23.7235 6.08121 23.2652 6.67796 22.8261 7.29336C24.1817 7.61038 25.4801 8.09524 26.7212 8.74793C28.0005 9.43792 29.2034 10.2958 30.2918 11.3587C30.5782 11.6384 30.8455 11.9182 31.1128 12.2165C31.2083 12.3284 31.3038 12.4403 31.3992 12.5522C31.0556 10.9484 30.4636 9.41928 29.6235 8.03929C28.6879 6.47283 27.4468 5.0742 25.9957 3.93665ZM24.3536 21.4475C25.7665 22.3613 27.2941 23.014 28.8598 23.4056C30.6737 23.8718 32.564 24.0023 34.4161 23.7972C34.5116 23.014 34.5306 22.2307 34.4925 21.4475C34.4543 20.7016 34.3588 19.9743 34.2061 19.2283C33.0222 19.937 31.7429 20.4964 30.3873 20.888C28.9934 21.2797 27.5041 21.5034 25.9766 21.5034C25.5756 21.5034 25.1746 21.4848 24.7737 21.4661C24.64 21.4661 24.5063 21.4661 24.3536 21.4475ZM17.5752 7.3493C17.4798 8.13254 17.4607 8.91577 17.4989 9.699C17.5371 10.4449 17.6325 11.1722 17.7853 11.9182C18.9691 11.2095 20.2484 10.6501 21.6041 10.2585C22.9979 9.86684 24.4872 9.64306 26.0148 9.64306C26.4157 9.64306 26.8167 9.66171 27.2177 9.68035C27.3704 9.699 27.5041 9.699 27.6568 9.71765C26.2439 8.80388 24.7164 8.15118 23.1507 7.75957C21.3177 7.27471 19.4274 7.14417 17.5752 7.3493ZM29.0889 20.8507C30.731 20.5151 32.2967 19.937 33.7096 19.1164C35.3326 18.184 36.7646 16.9905 37.9294 15.5732C37.4329 14.9579 36.8792 14.3984 36.2873 13.8576C35.7336 13.3541 35.1226 12.9065 34.4925 12.4776C34.1679 13.783 33.6714 15.0697 33.0031 16.2819C32.2967 17.5313 31.4183 18.7062 30.33 19.7691C30.0436 20.0489 29.7572 20.3099 29.4517 20.571C29.318 20.6829 29.2034 20.7575 29.0889 20.8507ZM14.0811 15.5732C14.5775 16.1886 15.1312 16.7481 15.7231 17.2889C16.2769 17.7924 16.8879 18.24 17.518 18.6689C17.8426 17.3635 18.339 16.0768 19.0073 14.8646C19.7138 13.6152 20.5921 12.4403 21.6804 11.3774C21.9668 11.0976 22.2533 10.8366 22.5588 10.5755C22.6733 10.4822 22.7879 10.389 22.8834 10.2958C21.2413 10.6314 19.6756 11.2095 18.2626 12.0301C16.6778 12.9438 15.2458 14.156 14.0811 15.5732ZM32.0103 17.177C32.9459 15.797 33.6141 14.3052 34.0151 12.776C34.4925 11.0044 34.6261 9.1582 34.4161 7.3493C33.6141 7.25606 32.8122 7.23741 32.0103 7.27471C31.2465 7.31201 30.5018 7.40525 29.7381 7.55444C30.4636 8.71064 31.0365 9.96008 31.4374 11.2841C31.8384 12.6455 32.0675 14.1 32.0675 15.5919C32.0675 15.9835 32.0484 16.3751 32.0293 16.7667C32.0293 16.8973 32.0293 17.0278 32.0103 17.177ZM17.5752 23.8158C18.3772 23.9091 19.1791 23.9277 19.9811 23.8904C20.7448 23.8531 21.4895 23.7599 22.2533 23.6107C21.5277 22.4545 20.9549 21.2051 20.5539 19.881C20.1529 18.5197 19.9238 17.0651 19.9238 15.5732C19.9238 15.1816 19.9429 14.79 19.962 14.3984C19.9811 14.2492 19.9811 14.1187 20.0002 13.9695C19.0646 15.3495 18.3963 16.8413 17.9953 18.3705C17.4989 20.1608 17.3652 21.9883 17.5752 23.8158Z" fill="white"/>
</g>
<defs>
<filter id="filter0_d" x="0" y="0" width="52" height="60" filterUnits="userSpaceOnUse" color-interpolation-filters="sRGB">
<feFlood flood-opacity="0" result="BackgroundImageFix"/>
<feColorMatrix in="SourceAlpha" type="matrix" values="0 0 0 0 0 0 0 0 0 0 0 0 0 0 0 0 0 0 127 0"/>
<feOffset dy="10"/>
<feGaussianBlur stdDeviation="5"/>
<feColorMatrix type="matrix" values="0 0 0 0 0.0190625 0 0 0 0 0.154982 0 0 0 0 0.254167 0 0 0 0.2 0"/>
<feBlend mode="normal" in2="BackgroundImageFix" result="effect1_dropShadow"/>
<feBlend mode="normal" in="SourceGraphic" in2="effect1_dropShadow" result="shape"/>
</filter>
</defs>
</svg>
