<svg width="12" height="12" viewBox="0 0 12 12" fill="none" xmlns="http://www.w3.org/2000/svg">
<path d="M0.16875 1.00109C-0.05625 0.776093 -0.05625 0.401617 0.16875 0.16875C0.401617 -0.05625 0.768226 -0.05625 1.00109 0.16875L5.99567 5.17172L10.9986 0.16875C11.2236 -0.05625 11.5981 -0.05625 11.8226 0.16875C12.0555 0.401617 12.0555 0.776617 11.8226 1.00109L6.82802 5.9962L11.8226 10.9992C12.0555 11.2242 12.0555 11.5986 11.8226 11.8315C11.5976 12.0565 11.2231 12.0565 10.9986 11.8315L5.99567 6.82854L1.00109 11.8315C0.768226 12.0565 0.401617 12.0565 0.16875 11.8315C-0.05625 11.5986 -0.05625 11.2236 0.16875 10.9992L5.16333 5.9962L0.16875 1.00109Z" fill="#787878"/>
</svg>
