<svg width="18" height="18" viewBox="0 0 18 18" fill="none" xmlns="http://www.w3.org/2000/svg">
<path d="M0.515705 8.79179C0.802208 8.79179 1.03141 9.021 1.03141 9.3075V13.9985C1.03141 15.2744 2.07046 16.3096 3.34253 16.3096H14.6575C15.9334 16.3096 16.9686 15.2706 16.9686 13.9985V9.2311C16.9686 8.9446 17.1978 8.71539 17.4843 8.71539C17.7708 8.71539 18 8.9446 18 9.2311V13.9985C18 15.8436 16.4987 17.341 14.6575 17.341H3.34253C1.49745 17.341 0 15.8398 0 13.9985V9.3075C0 9.02482 0.229202 8.79179 0.515705 8.79179Z" fill="#006FC0"/>
<path d="M11.9143 4.81895L9.51536 2.41997V12.883C9.51536 13.1695 9.28615 13.3987 8.99965 13.3987C8.71315 13.3987 8.48395 13.1695 8.48395 12.883V2.41997L6.08497 4.81895C5.98564 4.91827 5.85194 4.97175 5.72206 4.97175C5.58836 4.97175 5.45848 4.92209 5.35916 4.81895C5.1567 4.61649 5.1567 4.29179 5.35916 4.08933L8.63675 0.811737C8.73225 0.716236 8.86595 0.658936 8.99965 0.658936C9.13717 0.658936 9.26705 0.712416 9.36256 0.811737L12.6401 4.08933C12.8426 4.29179 12.8426 4.61649 12.6401 4.81895C12.4415 5.01759 12.113 5.01759 11.9143 4.81895Z" fill="#006FC0"/>
</svg>
