<svg width="10" height="8" viewBox="0 0 10 8" fill="none" xmlns="http://www.w3.org/2000/svg">
<path d="M9.575 1.225C9.30375 0.7425 9.00938 0.65375 8.41 0.62C7.81125 0.579375 6.30562 0.5625 5.00125 0.5625C3.69437 0.5625 2.18812 0.579375 1.59 0.619375C0.991875 0.65375 0.696875 0.741875 0.423125 1.225C0.14375 1.70687 0 2.53688 0 3.99813C0 3.99938 0 4 0 4C0 4.00125 0 4.00188 0 4.00188V4.00313C0 5.45813 0.14375 6.29437 0.423125 6.77125C0.696875 7.25375 0.99125 7.34125 1.58938 7.38188C2.18812 7.41688 3.69437 7.4375 5.00125 7.4375C6.30562 7.4375 7.81125 7.41687 8.41062 7.3825C9.01 7.34187 9.30437 7.25438 9.57563 6.77188C9.8575 6.295 10 5.45875 10 4.00375C10 4.00375 10 4.00188 10 4.00063C10 4.00063 10 3.99938 10 3.99875C10 2.53688 9.8575 1.70687 9.575 1.225ZM3.75 5.875V2.125L6.875 4L3.75 5.875Z" fill="black"/>
</svg>
